<?xml version="1.0" standalone="no"?><!DOCTYPE svg PUBLIC "-//W3C//DTD SVG 1.1//EN" "http://www.w3.org/Graphics/SVG/1.1/DTD/svg11.dtd"><svg t="1483768612113" class="icon" style="" viewBox="0 0 1024 1024" version="1.1" xmlns="http://www.w3.org/2000/svg" p-id="8835" xmlns:xlink="http://www.w3.org/1999/xlink" width="32" height="32"><defs><style type="text/css"></style></defs><path d="M972.8 972.8C972.8 1001.1136 949.9136 1024 921.6 1024 893.2864 1024 870.4 1001.1136 870.4 972.8 870.4 775.2192 709.5808 614.4 512 614.4 314.4192 614.4 153.6 775.2192 153.6 972.8 153.6 1001.1136 130.7136 1024 102.4 1024 74.0864 1024 51.2 1001.1136 51.2 972.8 51.2 785.0496 164.1984 623.4624 325.5808 551.7312 251.2896 495.6672 202.496 407.4496 202.496 307.2 202.496 137.5232 340.0704 0 509.696 0 679.3728 0 816.896 137.5232 816.896 307.2 816.896 406.6816 768.8704 494.1824 695.5008 550.3488 858.5216 621.4144 972.8 783.9232 972.8 972.8ZM509.696 102.4C396.8 102.4 304.896 194.2528 304.896 307.2 304.896 420.1472 396.8 512 509.696 512 622.6432 512 714.496 420.1472 714.496 307.2 714.496 194.2528 622.6432 102.4 509.696 102.4Z" p-id="8836" fill="#999999"></path></svg>