<?xml version="1.0" standalone="no"?><!DOCTYPE svg PUBLIC "-//W3C//DTD SVG 1.1//EN" "http://www.w3.org/Graphics/SVG/1.1/DTD/svg11.dtd"><svg t="1483757770414" class="icon" style="" viewBox="0 0 1024 1024" version="1.1" xmlns="http://www.w3.org/2000/svg" p-id="6323" xmlns:xlink="http://www.w3.org/1999/xlink" width="32" height="32"><defs><style type="text/css"></style></defs><path d="M309.333333 736c0 23.573333-19.093333 42.666667-42.666667 42.666667l-42.666667 0c-23.573333 0-42.666667-19.093333-42.666667-42.666667l0-170.666667c0-23.573333 19.093333-42.666667 42.666667-42.666667l42.666667 0c23.573333 0 42.666667 19.093333 42.666667 42.666667L309.333333 736z" p-id="6324" fill="#f4ea2a"></path><path d="M480 736c0 23.573333-19.093333 42.666667-42.666667 42.666667l-42.666667 0c-23.573333 0-42.666667-19.093333-42.666667-42.666667l0-234.666667c0-23.573333 19.093333-42.666667 42.666667-42.666667l42.666667 0c23.573333 0 42.666667 19.093333 42.666667 42.666667L480 736z" p-id="6325" fill="#f4ea2a"></path><path d="M650.666667 736c0 23.573333-19.093333 42.666667-42.666667 42.666667l-42.666667 0c-23.573333 0-42.666667-19.093333-42.666667-42.666667l0-320c0-23.573333 19.093333-42.666667 42.666667-42.666667l42.666667 0c23.573333 0 42.666667 19.093333 42.666667 42.666667L650.666667 736z" p-id="6326" fill="#f4ea2a"></path><path d="M821.333333 736c0 23.573333-19.093333 42.666667-42.666667 42.666667l-42.666667 0c-23.573333 0-42.666667-19.093333-42.666667-42.666667l0-426.666667c0-23.573333 19.093333-42.666667 42.666667-42.666667l42.666667 0c23.573333 0 42.666667 19.093333 42.666667 42.666667L821.333333 736z" p-id="6327" fill="#f4ea2a"></path></svg>