<?xml version="1.0" standalone="no"?><!DOCTYPE svg PUBLIC "-//W3C//DTD SVG 1.1//EN" "http://www.w3.org/Graphics/SVG/1.1/DTD/svg11.dtd"><svg t="1483757961277" class="icon" style="" viewBox="0 0 1024 1024" version="1.1" xmlns="http://www.w3.org/2000/svg" p-id="7221" xmlns:xlink="http://www.w3.org/1999/xlink" width="32" height="32"><defs><style type="text/css"></style></defs><path d="M505.742222 842.126222l-262.087111 129.308445c-30.321778 14.961778-51.029333 0.227556-46.136889-33.564445l43.121778-296.96L31.175111 426.097778c-23.608889-24.234667-15.985778-48.526222 17.635556-54.272l295.765333-50.744889L484.238222 55.409778c6.087111-11.605333 13.653333-18.773333 21.504-21.390222v808.106666z" fill="#e9a815" p-id="7222"></path><path d="M243.256889 973.027556c-30.378667 14.961778-51.086222 0.227556-46.193778-33.564445l43.121778-296.96L30.776889 427.633778c-23.608889-24.291556-16.042667-48.526222 17.635555-54.272l295.708445-50.744889 139.662222-265.614222c15.758222-29.980444 41.187556-30.208 57.059556 0l139.662222 265.614222 295.822222 50.744889c33.336889 5.688889 41.415111 29.809778 17.578667 54.272l-209.408 214.869333 43.121778 296.96c4.835556 33.507556-15.587556 48.64-46.193778 33.564445l-269.084445-132.778667-269.084444 132.778667z m85.276444-176.867556l29.013334-199.509333L216.746667 452.209778l198.712889-34.133334 93.866666-178.403555 93.866667 178.460444 198.712889 34.133334-140.743111 144.384 29.013333 199.509333-180.906667-89.201778-180.792889 89.201778z" fill="#e9a815" p-id="7223"></path></svg>